HIERARCHY
ROOT reference
{
  OFFSET 0 0 0
  CHANNELS 6 Xposition Yposition Zposition Zrotation Xrotation Yrotation
  JOINT Hips
  {
    OFFSET -2.49316 62.9191 -85.6059
    CHANNELS 6 Xposition Yposition Zposition Zrotation Xrotation Yrotation
    JOINT Spine
    {
      OFFSET 0 7.52385 0
      CHANNELS 6 Xposition Yposition Zposition Zrotation Xrotation Yrotation
      JOINT Spine1
      {
        OFFSET 0 21.7843 0
        CHANNELS 6 Xposition Yposition Zposition Zrotation Xrotation Yrotation
        JOINT Neck
        {
          OFFSET 0 21.6948 1.97225
          CHANNELS 6 Xposition Yposition Zposition Zrotation Xrotation Yrotation
          JOINT Head
          {
            OFFSET 0 12.8456 -1.83509
            CHANNELS 6 Xposition Yposition Zposition Zrotation Xrotation Yrotation
            End Site
            {
              OFFSET 0 22.9386 0
            }
          }
        }
        JOINT LeftShoulder
        {
          OFFSET 3.65748 19.7052 -0.211895
          CHANNELS 6 Xposition Yposition Zposition Zrotation Xrotation Yrotation
          JOINT LeftArm
          {
            OFFSET 11.1953 0 0
            CHANNELS 6 Xposition Yposition Zposition Zrotation Xrotation Yrotation
            JOINT LeftForeArm
            {
              OFFSET 29.6607 0 0
              CHANNELS 6 Xposition Yposition Zposition Zrotation Xrotation Yrotation
              JOINT LeftHand
              {
                OFFSET 23.3476 0 0
                CHANNELS 6 Xposition Yposition Zposition Zrotation Xrotation Yrotation
                End Site
                {
                  OFFSET 13.7631 0 0
                }
              }
            }
          }
        }
        JOINT RightShoulder
        {
          OFFSET -3.68053 19.7052 -0.211895
          CHANNELS 6 Xposition Yposition Zposition Zrotation Xrotation Yrotation
          JOINT RightArm
          {
            OFFSET -11.1953 0 0
            CHANNELS 6 Xposition Yposition Zposition Zrotation Xrotation Yrotation
            JOINT RightForeArm
            {
              OFFSET -29.6607 0 0
              CHANNELS 6 Xposition Yposition Zposition Zrotation Xrotation Yrotation
              JOINT RightHand
              {
                OFFSET -23.3476 0 0
                CHANNELS 6 Xposition Yposition Zposition Zrotation Xrotation Yrotation
                End Site
                {
                  OFFSET -13.7631 0 0
                }
              }
            }
          }
        }
      }
    }
    JOINT LeftUpLeg
    {
      OFFSET 9.17543 0 0
      CHANNELS 6 Xposition Yposition Zposition Zrotation Xrotation Yrotation
      JOINT LeftLeg
      {
        OFFSET 0 -39.1216 0
        CHANNELS 6 Xposition Yposition Zposition Zrotation Xrotation Yrotation
        JOINT LeftFoot
        {
          OFFSET 0 -35.3569 0
          CHANNELS 6 Xposition Yposition Zposition Zrotation Xrotation Yrotation
          JOINT LeftToeBase
          {
            OFFSET 0 -5.96403 13.7631
            CHANNELS 6 Xposition Yposition Zposition Zrotation Xrotation Yrotation
            End Site
            {
              OFFSET 0 0 3.67017
            }
          }
        }
      }
    }
    JOINT RightUpLeg
    {
      OFFSET -9.17543 0 0
      CHANNELS 6 Xposition Yposition Zposition Zrotation Xrotation Yrotation
      JOINT RightLeg
      {
        OFFSET 0 -39.1216 0
        CHANNELS 6 Xposition Yposition Zposition Zrotation Xrotation Yrotation
        JOINT RightFoot
        {
          OFFSET 0 -35.3569 0
          CHANNELS 6 Xposition Yposition Zposition Zrotation Xrotation Yrotation
          JOINT RightToeBase
          {
            OFFSET 0 -5.96403 13.7631
            CHANNELS 6 Xposition Yposition Zposition Zrotation Xrotation Yrotation
            End Site
            {
              OFFSET 0 0 3.67017
            }
          }
        }
      }
    }
  }
}
MOTION
Frames:	10
Frame Time:	0.004
0 0 0 0 0 -0 -8.86448 74.5628 -214.915 0.0655599 -7.80339 2.58457 0 7.52385 0 0.244741 3.74277 -0.542463 0 21.7843 2.84217e-014 1.61533 -2.35265 -0.501228 -8.88178e-016 21.6948 1.97225 -1.51794 15.1733 -0.373594 -8.88178e-016 12.8456 -1.83509 0.584302 2.00231 -0.302537 3.65748 19.7052 -0.211895 19.592 -3.673 -4.81499 11.1953 2.84217e-014 0 -20.6392 5.80661 -3.2747 29.6607 -2.84217e-014 2.84217e-014 1.82426 -2.75863 -1.47821 23.3476 0 0 -2.83153 -2.68021 -2.22416 -3.68053 19.7052 -0.211895 -17.8744 -1.06453 0.0704812 -11.1953 2.84217e-014 -2.84217e-014 23.8013 5.62963 8.75248 -29.6607 2.84217e-014 -2.84217e-014 -1.92985 -1.27152 1.00326 -23.3476 0 0 1.5094 -1.28182 -2.11902 9.17543 0 0 4.45935 12.2441 -0.434142 0 -39.1216 0 -0.857756 0.735948 2.60463 -3.55271e-015 -35.3569 2.84217e-014 0.140588 -10.4097 9.78485 0 -5.96403 13.7631 -1.19271e-015 -7.95139e-016 -6.36111e-015 -9.17543 0 0 -5.53779 11.7248 3.76123 -7.10543e-015 -39.1216 0 1.0223 1.98703 -1.30917 5.32907e-015 -35.3569 -2.84217e-014 2.74481 -11.1431 -21.217 0 -5.96403 13.7631 1.98785e-016 7.95139e-016 3.18055e-015 
0 0 0 0 0 -0 -8.86448 74.5628 -214.915 0.0655599 -7.80339 2.58457 0 7.52385 0 0.244741 3.74277 -0.542463 0 21.7843 2.84217e-014 1.61533 -2.35265 -0.501228 -8.88178e-016 21.6948 1.97225 -1.50604 15.1733 -0.373594 -1.77636e-015 12.8456 -1.83509 0.57024 1.9857 -0.302534 3.65748 19.7052 -0.211895 19.5913 -3.67294 -4.8255 11.1953 0 0 -20.64 5.79386 -3.27463 29.6607 0 0 1.82518 -2.7482 -1.46566 23.3476 -2.84217e-014 2.84217e-014 -2.84374 -2.66937 -2.23895 -3.68053 19.7052 -0.211895 -17.8744 -1.06046 0.0704811 -11.1953 0 -2.84217e-014 23.8013 5.62963 8.75248 -29.6607 0 2.84217e-014 -1.92277 -1.27152 1.00326 -23.3476 -2.84217e-014 0 1.49516 -1.28186 -2.07387 9.17543 0 0 4.45949 12.2621 -0.434172 0 -39.1216 0 -0.857073 0.726633 2.58427 -3.55271e-015 -35.3569 0 0.150765 -10.408 9.84118 0 -5.96403 13.7631 1.98785e-016 0 -3.18055e-015 -9.17543 0 0 -5.53869 11.7382 3.76141 0 -39.1216 -2.84217e-014 1.0229 1.98701 -1.32652 -1.77636e-015 -35.3569 -2.84217e-014 2.74048 -11.1439 -21.2061 0 -5.96403 13.7631 -1.98785e-016 1.59028e-015 -0 
0 0 0 0 0 -0 -8.86448 74.5628 -214.915 0.0655599 -7.80339 2.58457 0 7.52385 0 0.244741 3.74277 -0.542463 0 21.7843 2.84217e-014 1.61523 -2.36451 -0.501233 -8.88178e-016 21.6948 1.97225 -1.4986 15.1733 -0.373594 8.88178e-016 12.8456 -1.83509 0.560917 1.9974 -0.303014 3.65748 19.7052 -0.211895 19.591 -3.67292 -4.82954 11.1953 0 0 -20.6396 5.80092 -3.27467 29.6607 -2.84217e-014 0 1.74999 -2.69391 -1.45033 23.3476 0 0 -1.97011 -2.63469 -2.15934 -3.68053 19.7052 -0.211895 -17.8744 -1.04784 0.0704808 -11.1953 0 0 23.7904 5.62963 8.75248 -29.6607 2.84217e-014 0 -1.91828 -1.28265 1.00326 -23.3476 0 0 1.44476 -1.29244 -2.10539 9.17543 0 0 4.45721 12.2585 -0.423549 0 -39.1216 2.84217e-014 -0.85679 0.716338 2.59873 0 -35.3569 2.84217e-014 0.143307 -10.4093 9.7999 0 -5.96403 13.7631 -1.98785e-016 -1.59028e-015 3.18055e-015 -9.17543 0 0 -5.53804 11.7286 3.76128 0 -39.1216 -2.84217e-014 1.02278 1.98702 -1.32301 1.77636e-015 -35.3569 0 2.7241 -11.1443 -21.2009 0 -5.96403 13.7631 1.98785e-016 -7.95139e-016 3.18055e-015 
0 0 0 0 0 -0 -8.86448 74.5628 -214.915 0.0655599 -7.80339 2.58457 0 7.52385 0 0.244741 3.74277 -0.542463 0 21.7843 2.84217e-014 1.61522 -2.36526 -0.501233 -8.88178e-016 21.6948 1.97225 -1.53957 15.1798 -0.371791 -1.77636e-015 12.8456 -1.83509 0.622778 1.96751 -0.290463 3.65748 19.7052 -0.211895 19.5914 -3.67295 -4.82367 11.1953 0 0 -20.6392 5.80667 -3.2747 29.6607 -2.84217e-014 0 1.82821 -2.74159 -1.47044 23.3476 -2.84217e-014 0 -2.873 -2.66216 -2.2357 -3.68053 19.7052 -0.211895 -17.8744 -1.05628 0.070481 -11.1953 0 0 23.8076 5.62963 8.75248 -29.6607 0 0 -1.93712 -1.28414 1.00326 -23.3476 0 0 1.49459 -1.29458 -2.09926 9.17543 0 0 4.46418 12.2576 -0.426971 -1.77636e-015 -39.1216 2.84217e-014 -0.856823 0.719534 2.58986 0 -35.3569 0 0.145825 -10.4095 9.79518 0 -5.96403 13.7631 -7.95139e-016 0 3.18055e-015 -9.17543 0 0 -5.53787 11.7312 3.77215 0 -39.1216 2.84217e-014 1.02238 1.98702 -1.31156 3.55271e-015 -35.3569 0 2.73721 -11.1422 -21.2293 0 -5.96403 13.7631 3.97569e-016 1.59028e-015 9.54166e-015 
0 0 0 0 0 -0 -8.86448 74.5628 -214.915 0.0655599 -7.80339 2.58457 0 7.52385 0 0.244741 3.74277 -0.542463 0 21.7843 2.84217e-014 1.61519 -2.36867 -0.501234 0 21.6948 1.97225 -1.50556 15.2088 -0.370007 1.77636e-015 12.8456 -1.83509 0.57233 1.90857 -0.301791 3.65748 19.7052 -0.211895 19.5908 -3.6729 -4.83313 11.1953 0 0 -20.6388 5.81404 -3.27474 29.6607 0 0 1.75529 -2.69435 -1.45803 23.3476 2.84217e-014 0 -1.98191 -2.63495 -2.14714 -3.68053 19.7052 -0.211895 -17.8744 -1.06638 0.0704813 -11.1953 0 0 23.7955 5.64104 8.75266 -29.6607 0 0 -1.93422 -1.29036 1.00326 -23.3476 2.84217e-014 0 1.50148 -1.30112 -2.1123 9.17543 0 0 4.4454 12.2567 -0.43772 0 -39.1216 0 -0.855965 0.698964 2.59576 0 -35.3569 0 0.145564 -10.3853 9.80687 7.10543e-015 -5.96403 13.7631 -5.96354e-016 7.95139e-016 -0 -9.17543 0 0 -5.55227 11.7302 3.76302 0 -39.1216 0 1.02255 1.98702 -1.3165 0 -35.3569 0 2.73593 -11.144 -21.2049 0 -5.96403 13.7631 1.98785e-016 1.59028e-015 9.54166e-015 
0 0 0 0 0 -0 -8.86448 74.5628 -214.915 0.0655599 -7.80339 2.58457 0 7.52385 0 0.244827 3.74277 -0.54377 8.88178e-016 21.7843 0 1.61505 -2.37909 -0.502474 -1.77636e-015 21.6948 1.97225 -1.51938 15.1949 -0.36819 1.77636e-015 12.8456 -1.83509 0.600547 1.92355 -0.289998 3.65748 19.7052 -0.211895 19.5905 -3.67288 -4.83729 11.1953 0 0 -20.6396 5.78446 -3.28344 29.6607 -2.84217e-014 0 1.80537 -2.72836 -1.46438 23.3476 0 2.84217e-014 -2.83322 -2.65027 -2.2277 -3.68053 19.7052 -0.211895 -17.8744 -1.06741 0.0704813 -11.1953 0 2.84217e-014 23.802 5.62831 8.76261 -29.6607 0 -2.84217e-014 -1.94615 -1.28795 1.00326 -23.3476 2.84217e-014 -2.84217e-014 1.49049 -1.29827 -2.10067 9.17543 0 0 4.45687 12.2558 -0.419626 1.77636e-015 -39.1216 0 -0.85365 0.713235 2.60343 0 -35.3569 0 0.13291 -10.4016 9.76481 -7.10543e-015 -5.96403 13.7631 1.98785e-016 1.59028e-015 -6.36111e-015 -9.17543 0 0 -5.5404 11.7284 3.77801 3.55271e-015 -39.1216 -2.84217e-014 1.02333 1.987 -1.33889 -5.32907e-015 -35.3569 2.84217e-014 2.73349 -11.1437 -21.2089 1.42109e-014 -5.96403 13.7631 -1.98785e-016 0 3.18055e-015 
0 0 0 0 0 -0 -8.86448 74.5628 -214.915 0.0655599 -7.80339 2.58457 0 7.52385 0 0.244913 3.74277 -0.545087 0 21.7843 0 1.62028 -2.37864 -0.503717 1.77636e-015 21.6948 1.97225 -1.55064 15.1948 -0.366504 -2.66454e-015 12.8456 -1.83509 0.650513 1.90718 -0.283553 3.65748 19.7052 -0.211895 19.5902 -3.67289 -4.83602 11.1953 0 0 -20.6385 5.80016 -3.28613 29.6607 0 0 1.81298 -2.72694 -1.46746 23.3476 0 0 -2.86475 -2.64788 -2.23804 -3.68053 19.7052 -0.211895 -17.879 -1.06826 0.0659442 -11.1953 -2.84217e-014 0 23.8009 5.62111 8.76619 -29.6607 2.84217e-014 2.84217e-014 -1.95395 -1.27125 1.00559 -23.3476 -2.84217e-014 0 1.51867 -1.28195 -2.11834 9.17543 0 0 4.46254 12.2549 -0.429213 0 -39.1216 2.84217e-014 -0.874072 0.724309 2.61159 3.55271e-015 -35.3569 0 0.121184 -10.4145 9.79414 0 -5.96403 13.7631 5.96354e-016 0 -6.36111e-015 -9.17543 0 0 -5.53714 11.7269 3.76624 -3.55271e-015 -39.1216 0 1.02237 1.98703 -1.31116 -3.55271e-015 -35.3569 0 2.77556 -11.1425 -21.2252 1.42109e-014 -5.96403 13.7631 5.96354e-016 -7.95139e-016 -0 
0 0 0 0 0 -0 -8.86457 74.5628 -214.915 0.0654964 -7.802 2.58456 0 7.52385 0 0.244997 3.74277 -0.546384 0 21.7843 -2.84217e-014 1.59719 -2.38772 -0.504949 0 21.6948 1.97225 -1.50653 15.2026 -0.364768 1.77636e-015 12.8456 -1.83509 0.605856 1.89287 -0.28792 3.65748 19.7052 -0.211895 19.6049 -3.6729 -4.83373 11.1953 2.84217e-014 2.84217e-014 -20.6392 5.78278 -3.28893 29.6607 -2.84217e-014 -2.84217e-014 1.74216 -2.66665 -1.44565 23.3476 0 -2.84217e-014 -1.99645 -2.60724 -2.15327 -3.68053 19.7052 -0.211895 -17.8555 -1.06895 0.083047 -11.1953 0 0 23.7979 5.62922 8.75318 -29.6607 -2.84217e-014 2.84217e-014 -1.93612 -1.28305 1.0081 -23.3476 0 2.84217e-014 1.45316 -1.29278 -2.10938 9.17543 0 -2.84217e-014 4.46186 12.2541 -0.428856 0 -39.1216 -5.68434e-014 -0.863569 0.706211 2.56006 -3.55271e-015 -35.3569 0 0.147499 -10.3982 9.83566 0 -5.96403 13.7631 -1.19271e-015 0 -0 -9.17543 1.42109e-014 -2.84217e-014 -5.53545 11.7262 3.75871 3.55271e-015 -39.1216 -2.84217e-014 1.02232 1.98703 -1.30991 -3.55271e-015 -35.3569 2.84217e-014 2.7295 -11.1427 -21.2219 0 -5.96403 13.7631 0 0 -3.18055e-015 
0 0 0 0 0 -0 -8.86466 74.5628 -214.915 0.0649648 -7.79947 2.58148 1.77636e-015 7.52385 0 0.245079 3.74277 -0.547633 8.88178e-016 21.7843 0 1.6107 -2.38391 -0.50614 -8.88178e-016 21.6948 1.97225 -1.53855 15.1873 -0.362881 -8.88178e-016 12.8456 -1.83509 0.635903 1.89737 -0.28522 3.65748 19.7052 -0.211895 19.5947 -3.6756 -4.83154 11.1953 -2.84217e-014 0 -20.6387 5.79601 -3.29223 29.6607 0 -2.84217e-014 1.8189 -2.71822 -1.4753 23.3476 0 0 -2.8946 -2.63878 -2.22038 -3.68053 19.7052 -0.211895 -17.8687 -1.0695 0.0649063 -11.1953 0 0 23.7951 5.61636 8.77955 -29.6607 0 -2.84217e-014 -1.93741 -1.28018 1.01052 -23.3476 0 0 1.45229 -1.28936 -2.11971 9.17543 0 0 4.46092 12.2534 -0.428159 -1.77636e-015 -39.1216 0 -0.859296 0.68999 2.57071 0 -35.3569 2.84217e-014 0.148569 -10.3879 9.80975 7.10543e-015 -5.96403 13.7631 0 1.59028e-015 -0 -9.17543 0 0 -5.53867 11.726 3.77521 3.55271e-015 -39.1216 0 1.02305 1.98701 -1.33097 0 -35.3569 0 2.71817 -11.1433 -21.2137 1.42109e-014 -5.96403 13.7631 7.95139e-016 -7.95139e-016 -6.36111e-015 
0 0 0 0 0 -0 -8.86476 74.5628 -214.915 0.0654774 -7.79645 2.58624 -1.77636e-015 7.52385 0 0.245165 3.74277 -0.548949 0 21.7843 2.84217e-014 1.60973 -2.38874 -0.507409 -2.66454e-015 21.6948 1.97225 -1.52719 15.2016 -0.361183 0 12.8456 -1.83509 0.618314 1.85819 -0.281319 3.65748 19.7052 -0.211895 19.5936 -3.6783 -4.83013 11.1953 0 0 -20.6396 5.78783 -3.29469 29.6607 -2.84217e-014 0 1.8127 -2.72039 -1.47527 23.3476 0 -2.84217e-014 -2.89875 -2.64083 -2.22646 -3.68053 19.7052 -0.211895 -17.8658 -1.06993 0.063093 -11.1953 0 0 23.7963 5.63188 8.77134 -29.6607 0 2.84217e-014 -1.93898 -1.27517 1.01261 -23.3476 0 2.84217e-014 1.40179 -1.28411 -2.12561 9.17543 -1.42109e-014 0 4.45977 12.2528 -0.427183 0 -39.1216 0 -0.859356 0.693493 2.57996 3.55271e-015 -35.3569 0 0.149972 -10.3864 9.80431 0 -5.96403 13.7631 7.95139e-016 7.95139e-016 -0 -9.17543 0 0 -5.53848 11.7263 3.77502 0 -39.1216 0 1.02327 1.987 -1.33719 -3.55271e-015 -35.3569 0 2.72646 -11.1436 -21.2103 -1.42109e-014 -5.96403 13.7631 7.95139e-016 -1.59028e-015 -6.36111e-015 
